<svg xmlns="http://www.w3.org/2000/svg" width="256" height="256" viewBox="0 0 256 256" fill="none">
<path d="M 6.4,56.01 C 6.4,28.37 29.18,6 57.18,6 H 198.82 C 226.82,6 250.31,28.37 250.31,56.01 V 198.99 C 250.31,226.63 227.53,250 199.53,250 H 57.18 C 29.18,250 6.4,227.63 6.4,199.99 V 56.01 Z" fill="url(#paint0_linear_574_1612)"/>
<path opacity="0.2" d="M 24.02,133.01 C 24.02,165.61 50.46,189.78 82.72,189.78 H 173.28 C 205.92,189.78 232.48,163.88 232.48,130.82 V 128.92 C 232.48,96.28 206.04,70.22 173.78,70.22 H 82.72 C 50.46,70.22 24.02,96.12 24.02,128.77 V 133.01 Z" fill="url(#paint1_radial_574_1612)"/>
<path d="M 23.36,128.77 C 23.36,96.12 49.26,69.68 81.91,69.68 H 172.89 C 205.53,69.68 232.09,96.12 232.09,128.77 V 129.23 C 232.09,161.88 206.19,187.78 173.55,187.78 H 81.91 C 49.26,187.78 23.36,161.88 23.36,129.23 V 128.77 Z" fill="url(#paint2_linear_574_1612)" stroke="url(#paint3_linear_574_1612)" stroke-width="1.08056"/>
<path opacity="0.15" d="M 53.21,120.87 C 53.21,116.07 56.07,113.88 59.71,113.88 C 63.35,113.88 66.21,116.78 66.21,120.87 V 139.92 C 66.21,144.01 63.35,146.66 59.71,146.66 C 56.07,146.66 53.21,144.01 53.21,139.92 V 120.87 Z M 75.72,112.31 C 75.72,107.51 78.58,105.61 82.22,105.61 C 85.86,105.61 88.72,108.22 88.72,112.31 V 148.19 C 88.72,152.28 85.86,154.93 82.22,154.93 C 78.58,154.93 75.72,152.28 75.72,148.19 V 112.31 Z M 99.12,100.59 C 99.12,95.79 101.98,93.89 105.62,93.89 C 109.26,93.89 111.48,96.5 111.48,100.59 V 159.09 C 111.48,163.18 108.62,165.31 105.62,165.31 C 102.28,165.31 99.12,163.18 99.12,159.09 V 100.59 Z M 121.63,89.94 C 121.63,85.73 124.49,83.12 127.69,83.12 C 131.33,83.12 133.83,85.85 133.83,89.94 V 170.08 C 133.83,174.76 130.97,176.92 127.69,176.92 C 124.49,176.92 121.63,174.76 121.63,170.08 V 89.94 Z M 144.14,100.59 C 144.14,96.38 147,93.89 150.21,93.89 C 153.85,93.89 156.35,96.38 156.35,100.59 V 158.79 C 156.35,162.99 153.49,165.31 150.21,165.31 C 146.91,165.31 144.14,162.99 144.14,158.79 V 100.59 Z M 167.21,112.31 C 167.21,108.1 169.71,105.61 173.35,105.61 C 176.99,105.61 179.48,108.33 179.48,112.31 V 147.95 C 179.48,152.16 176.99,154.66 173.35,154.66 C 169.71,154.66 167.21,152.16 167.21,147.95 V 112.31 Z M 189.72,120.87 C 189.72,116.9 192.58,113.91 196.09,113.91 C 199.73,113.91 202.23,116.9 202.23,120.87 V 139.16 C 202.23,143.13 199.37,146.13 196.09,146.13 C 192.45,146.13 189.72,143.13 189.72,139.16 V 120.87 Z" fill="url(#paint4_linear_574_1612)"/>
<path d="M 53.21,119.72 C 53.21,114.92 56.37,113.02 59.71,113.02 C 63.35,113.02 66.21,115.63 66.21,119.72 V 138.77 C 66.21,142.86 63.35,145.51 59.71,145.51 C 56.07,145.51 53.21,142.86 53.21,138.77 V 119.72 Z M 75.72,111.16 C 75.72,106.36 78.58,104.46 82.22,104.46 C 85.86,104.46 88.72,107.07 88.72,111.16 V 147.04 C 88.72,151.13 85.86,153.78 82.22,153.78 C 78.58,153.78 75.72,151.13 75.72,147.04 V 111.16 Z M 99.12,99.44 C 99.12,94.64 101.98,92.74 105.62,92.74 C 109.26,92.74 111.48,95.35 111.48,99.44 V 158.81 C 111.48,162.9 108.62,165.03 105.62,165.03 C 102.28,165.03 99.12,162.9 99.12,158.81 V 99.44 Z M 121.63,88.79 C 121.63,84.58 124.49,81.97 127.69,81.97 C 131.33,81.97 133.83,84.7 133.83,88.79 V 169.42 C 133.83,173.61 130.97,176.01 127.69,176.01 C 124.49,176.01 121.63,173.61 121.63,169.42 V 88.79 Z M 144.14,99.44 C 144.14,95.23 147,92.74 150.21,92.74 C 153.85,92.74 156.35,95.23 156.35,99.44 V 158.28 C 156.35,162.48 153.49,164.8 150.21,164.8 C 146.91,164.8 144.14,162.48 144.14,158.28 V 99.44 Z M 167.21,111.16 C 167.21,106.95 169.71,104.46 173.35,104.46 C 176.99,104.46 179.48,107.18 179.48,111.16 V 146.8 C 179.48,151.01 176.99,153.51 173.35,153.51 C 169.71,153.51 167.21,151.01 167.21,146.8 V 111.16 Z M 189.72,119.72 C 189.72,115.75 192.58,112.76 196.09,112.76 C 199.73,112.76 202.23,115.75 202.23,119.72 V 138.01 C 202.23,141.98 199.37,144.98 196.09,144.98 C 192.45,144.98 189.72,141.98 189.72,138.01 V 119.72 Z" fill="url(#paint5_linear_574_1612)"/>
<defs>
<linearGradient id="paint0_linear_574_1612" x1="35.8662" y1="13.9053" x2="217.782" y2="248.137" gradientUnits="userSpaceOnUse">
<stop stop-color="#F0A300"/>
<stop offset="0.721" stop-color="#2D82E6"/>
</linearGradient>
<radialGradient id="paint1_radial_574_1612" cx="0" cy="0" r="1" gradientUnits="userSpaceOnUse" gradientTransform="translate(83.9021 76.0153) rotate(47.456) scale(164.405 146.083)">
<stop stop-color="#232629"/>
<stop offset="1" stop-color="#232629" stop-opacity="0.01"/>
</radialGradient>
<linearGradient id="paint2_linear_574_1612" x1="44.7596" y1="75.3443" x2="206.71" y2="186.029" gradientUnits="userSpaceOnUse">
<stop stop-color="#D9B88B"/>
<stop offset="0.776" stop-color="#82B6E0"/>
<stop offset="1" stop-color="#B9D3F1"/>
</linearGradient>
<linearGradient id="paint3_linear_574_1612" x1="127.727" y1="69.138" x2="127.727" y2="188.32" gradientUnits="userSpaceOnUse">
<stop stop-color="#D9D9D9"/>
<stop offset="1" stop-color="#D9D9D9" stop-opacity="0.01"/>
</linearGradient>
<linearGradient id="paint4_linear_574_1612" x1="127.719" y1="83.1152" x2="127.719" y2="176.92" gradientUnits="userSpaceOnUse">
<stop stop-color="#232629" stop-opacity="0.231"/>
<stop offset="1" stop-color="#232629" stop-opacity="0.07"/>
</linearGradient>
<linearGradient id="paint5_linear_574_1612" x1="127.719" y1="81.9678" x2="127.719" y2="176.006" gradientUnits="userSpaceOnUse">
<stop stop-color="#FED941"/>
<stop offset="0.505" stop-color="#F4B411"/>
<stop offset="1" stop-color="#CC8200"/>
</linearGradient>
</defs>
</svg>